<?xml version="1.0" standalone="no"?>
<!DOCTYPE svg PUBLIC "-//W3C//DTD SVG 20010904//EN"
 "http://www.w3.org/TR/2001/REC-SVG-20010904/DTD/svg10.dtd">
<svg version="1.0" xmlns="http://www.w3.org/2000/svg"
 width="4693.000000pt" height="4689.000000pt" viewBox="0 0 4693.000000 4689.000000"
 preserveAspectRatio="xMidYMid meet">

<g transform="translate(0.000000,4689.000000) scale(0.100000,-0.100000)"
fill="#fff" stroke="none">
<path d="M31210 45323 c-212 -15 -447 -64 -530 -109 -91 -49 -115 -125 -60
-188 25 -28 50 -40 143 -70 185 -58 363 -154 549 -294 54 -40 98 -75 98 -78 0
-2 -24 6 -52 17 -104 42 -336 122 -498 170 -775 235 -1651 341 -2455 299 -549
-29 -1072 -123 -1286 -231 -145 -73 -148 -188 -6 -234 90 -29 303 -144 445
-239 173 -115 292 -210 269 -214 -42 -8 -331 57 -512 115 -391 125 -733 315
-1183 656 -254 192 -295 214 -356 186 -33 -15 -50 -54 -74 -169 -80 -375 -44
-720 108 -1020 l30 -59 -53 23 c-88 40 -423 146 -602 191 -332 85 -605 119
-940 119 -332 0 -559 -28 -869 -106 -357 -89 -644 -207 -951 -389 -251 -149
-480 -332 -533 -427 l-22 -40 22 -26 23 -27 85 12 c227 31 642 -22 1012 -130
73 -22 147 -45 163 -52 29 -11 27 -12 -51 -25 -119 -20 -228 -63 -424 -169
-101 -55 -215 -109 -270 -127 -84 -28 -107 -31 -200 -30 -127 1 -374 32 -570
72 -279 56 -498 128 -905 296 -161 67 -214 75 -246 35 -28 -34 -24 -85 17
-203 72 -208 192 -419 350 -618 101 -127 343 -362 483 -470 68 -52 132 -102
143 -110 18 -14 18 -19 3 -124 -19 -136 -19 -236 -1 -357 47 -309 157 -535
368 -754 54 -56 116 -115 139 -131 38 -26 39 -28 19 -36 -58 -21 -270 -40
-390 -35 -336 16 -627 110 -1066 344 -82 45 -173 89 -202 99 l-52 19 -22 -23
-22 -22 43 -132 c234 -715 727 -1237 1426 -1511 121 -48 316 -109 380 -119 24
-4 24 -14 1 -163 -20 -130 -40 -598 -27 -624 19 -34 44 -673 38 -958 l-6 -272
-29 -43 c-115 -170 -216 -411 -272 -653 -24 -101 -56 -328 -65 -454 l-7 -94
-61 -91 c-33 -50 -131 -190 -218 -312 -86 -121 -186 -265 -222 -320 -334 -510
-467 -918 -467 -1432 0 -700 267 -1467 788 -2262 223 -342 531 -721 856 -1057
60 -62 102 -113 95 -113 -117 -1 -495 -24 -594 -36 -481 -57 -1084 -199 -1557
-365 -95 -33 -182 -63 -193 -66 -16 -3 -30 10 -69 66 -94 138 -200 207 -307
199 -54 -4 -60 -2 -64 16 -3 12 -17 80 -31 151 -54 267 -149 554 -225 681 -85
139 -186 194 -273 149 -16 -9 -31 -14 -33 -11 -2 2 -17 68 -33 147 -34 167
-57 338 -66 494 -9 164 9 242 191 810 249 779 265 1177 63 1519 -74 126 -233
273 -365 340 -46 23 -54 31 -63 68 -81 315 -164 548 -271 762 -70 139 -126
222 -210 310 -120 127 -224 176 -373 176 -241 -1 -467 -185 -619 -502 -30 -63
-46 -86 -57 -83 -50 16 -244 35 -356 35 -333 0 -568 -101 -731 -315 -85 -112
-138 -231 -172 -389 l-17 -80 -70 -14 c-210 -42 -360 -192 -408 -409 -31 -139
-22 -306 31 -584 5 -25 3 -26 -54 -31 -163 -15 -277 -148 -290 -338 -19 -277
188 -691 433 -866 76 -54 212 -119 279 -134 107 -22 98 -15 92 -73 -17 -173
53 -394 190 -599 140 -209 283 -324 523 -421 137 -55 400 -117 534 -125 l109
-7 29 -155 c24 -127 98 -468 196 -902 l15 -68 -28 -22 c-252 -198 -536 -467
-764 -723 -348 -390 -703 -869 -1003 -1350 -214 -343 -260 -430 -313 -581 -45
-128 -115 -284 -147 -327 -12 -16 -23 -16 -223 12 -753 106 -1259 172 -1700
220 -639 70 -830 80 -923 47 -71 -24 -187 -103 -245 -165 l-47 -51 -353 50
c-649 93 -1020 161 -1253 232 -87 26 -114 40 -194 100 -102 76 -226 139 -309
158 -85 20 -228 8 -346 -29 -179 -56 -177 -56 -605 53 -547 139 -901 214
-1361 291 -780 130 -1465 189 -2174 190 -450 0 -461 -1 -610 -74 -83 -41 -176
-124 -231 -205 -69 -102 -125 -265 -144 -420 -9 -76 -15 -94 -40 -123 -67 -76
-97 -178 -79 -264 10 -46 9 -53 -14 -88 -103 -155 -128 -304 -69 -405 l21 -35
-24 -48 c-99 -200 -124 -368 -80 -532 l14 -53 -50 -49 c-59 -58 -105 -151
-112 -229 -3 -30 -11 -80 -18 -110 -27 -122 13 -304 92 -423 120 -182 336
-291 669 -338 109 -15 514 -15 695 0 293 25 739 86 1185 162 588 100 1173 203
1470 259 423 80 846 144 1015 156 l101 6 109 -55 c249 -124 421 -173 575 -164
105 7 185 33 292 99 259 158 306 169 611 138 230 -24 225 -23 457 -66 161 -29
434 -94 445 -105 2 -3 -5 -66 -15 -142 -46 -328 -80 -845 -80 -1205 0 -474 50
-1064 131 -1552 145 -875 434 -1679 720 -2004 22 -24 39 -51 39 -59 0 -25 100
-108 170 -141 52 -25 81 -31 145 -34 73 -3 458 28 955 78 184 19 507 40 1140
74 1125 62 2556 41 3730 -54 1139 -92 2415 -312 3320 -571 140 -41 528 -168
561 -185 123 -62 1177 -951 1195 -1007 4 -12 102 -119 218 -237 397 -404 621
-692 751 -962 80 -167 85 -195 85 -523 0 -397 21 -837 86 -1770 8 -121 17
-344 21 -495 l5 -275 -45 -210 c-25 -115 -62 -277 -81 -360 -280 -1206 -405
-2233 -368 -3017 26 -556 81 -822 233 -1127 229 -462 626 -875 1204 -1254 340
-223 888 -498 1239 -623 l78 -27 -6 -71 c-3 -39 -8 -125 -12 -191 -6 -116 -7
-121 -38 -160 -58 -73 -93 -129 -154 -250 -119 -237 -144 -326 -145 -515 0
-198 29 -375 134 -809 120 -494 146 -658 169 -1051 37 -633 80 -882 200 -1136
129 -278 347 -439 660 -489 164 -26 389 -13 525 31 77 25 195 89 249 136 66
57 192 211 223 272 14 28 26 52 28 54 1 1 28 -14 61 -33 82 -49 124 -60 239
-60 153 1 258 50 327 153 l31 48 51 -26 c42 -21 65 -25 136 -25 81 0 90 2 180
46 l95 46 40 -17 c147 -62 267 -48 354 41 l36 37 85 -29 c76 -27 95 -29 180
-26 116 5 187 28 284 94 110 75 201 198 246 331 79 238 23 463 -200 797 -103
154 -244 330 -605 755 -538 633 -870 1100 -1053 1480 -61 126 -65 140 -67 210
-1 41 8 152 21 245 12 94 25 204 29 245 12 146 1 131 128 179 251 97 560 262
759 404 254 182 452 407 532 603 72 177 73 307 10 1324 -14 228 -26 516 -27
640 l-2 225 88 295 c121 404 170 577 197 695 12 55 48 213 80 350 189 810 326
1733 410 2748 40 488 50 594 62 647 13 64 53 137 153 285 211 311 209 380 -37
884 -61 124 -130 273 -155 331 -48 113 -93 271 -93 326 0 18 16 118 35 221
124 665 152 832 205 1223 53 387 106 861 126 1127 l7 93 31 5 c17 2 105 14
196 26 931 118 1820 368 2478 698 587 294 1025 671 1207 1036 115 232 125 362
56 700 -89 436 -176 762 -301 1128 -246 723 -581 1400 -1010 2042 -685 1025
-1669 1960 -2711 2575 -96 57 -177 106 -182 110 -4 3 73 4 171 2 462 -11 909
69 1251 223 53 23 97 42 99 40 2 -1 -7 -19 -19 -39 -39 -66 -8 -142 68 -167
39 -12 86 -8 319 27 725 110 1318 424 1750 927 180 209 375 534 483 803 21 52
41 98 45 101 3 4 6 -86 6 -198 0 -186 -6 -277 -40 -659 -17 -187 -1 -263 65
-306 39 -26 111 -15 171 27 64 44 284 258 389 379 403 466 605 963 605 1493 0
239 -36 461 -110 685 -22 67 -40 124 -40 128 0 10 151 -75 254 -143 277 -185
515 -439 711 -764 84 -139 119 -173 165 -163 14 3 36 18 49 32 24 27 24 27 18
207 -15 435 -97 864 -230 1205 -72 183 -160 345 -284 519 l-17 24 39 -7 c162
-31 432 -24 627 15 371 74 762 285 1002 540 94 100 136 169 136 225 0 58 -27
79 -125 99 -109 23 -283 76 -407 126 -181 72 -499 238 -455 239 9 0 60 -7 113
-15 425 -69 847 -203 1119 -357 50 -28 151 -92 225 -143 74 -50 147 -95 162
-98 32 -8 69 7 86 34 21 32 31 153 32 349 1 643 -163 1170 -505 1625 -48 64
-125 156 -172 205 -60 64 -80 90 -67 90 33 0 313 -77 527 -144 220 -70 273
-78 300 -48 45 50 -4 135 -198 340 -122 129 -265 249 -422 355 -67 45 -121 83
-120 84 1 1 38 -3 81 -8 252 -28 619 -20 906 21 522 73 811 221 787 401 -11
82 -262 479 -440 694 -472 573 -1075 1009 -1834 1326 -84 35 -153 66 -153 70
0 6 79 24 220 51 110 20 431 15 600 -10 225 -34 270 -28 270 34 0 39 -32 90
-135 219 -172 214 -310 340 -662 603 l-102 77 42 7 c23 3 64 7 91 7 132 2 422
62 606 126 137 47 380 167 500 246 117 77 264 220 274 266 4 18 5 41 2 51 -7
21 -218 199 -397 335 -443 334 -953 611 -1404 762 -520 174 -1068 220 -1600
135 -100 -16 -98 -18 -56 53 257 422 346 910 250 1375 -43 212 -134 416 -220
497 -46 43 -52 46 -96 43 -40 -3 -50 -8 -69 -35 -12 -18 -26 -64 -33 -110 -32
-202 -107 -455 -182 -609 -43 -87 -85 -138 -94 -113 -2 8 -34 100 -69 204
-298 876 -810 1587 -1496 2075 -342 244 -731 411 -960 413 -101 1 -150 -17
-180 -65 -34 -56 -27 -92 48 -239 73 -143 130 -295 181 -478 32 -113 62 -244
57 -248 -1 -1 -42 45 -91 103 -616 728 -1542 1172 -2614 1254 -123 9 -471 11
-581 3z m-8569 -5584 c248 -102 556 -143 904 -120 l193 13 109 -93 c483 -419
1042 -712 1601 -839 197 -45 321 -61 528 -67 296 -9 549 22 822 102 193 57
441 161 591 249 35 20 65 35 67 34 2 -2 -3 -44 -11 -93 -70 -430 -18 -930 136
-1317 81 -205 219 -444 337 -585 29 -34 52 -64 52 -67 0 -2 -15 -7 -32 -11
-158 -32 -529 -175 -748 -288 -328 -169 -652 -395 -1035 -722 -409 -349 -444
-387 -382 -416 21 -9 43 -1 173 64 583 292 1347 531 1959 613 164 22 618 26
740 6 303 -50 580 -117 820 -199 175 -59 462 -142 545 -158 19 -3 46 -2 60 3
18 7 56 4 130 -10 58 -11 115 -22 126 -24 12 -2 39 -27 61 -56 75 -98 327
-354 486 -494 342 -299 780 -586 1220 -796 127 -61 233 -112 234 -112 4 -3 86
-432 112 -591 219 -1323 225 -2497 17 -3340 -80 -326 -171 -552 -327 -821 -33
-55 -59 -112 -59 -125 0 -147 309 49 711 451 260 260 410 450 564 715 74 126
125 193 211 276 134 128 298 222 479 275 118 35 321 44 435 20 188 -39 356
-168 439 -337 72 -147 84 -212 85 -454 1 -237 -8 -298 -74 -496 -316 -952
-1538 -1598 -2294 -1214 -91 46 -119 46 -159 -2 -269 -316 -603 -518 -1116
-674 -545 -166 -1191 -296 -1806 -364 -415 -46 -676 -58 -1160 -52 -242 4
-480 11 -530 16 -49 6 -187 20 -305 31 -449 44 -1070 177 -1478 317 l-192 66
82 55 c114 77 308 273 387 391 70 106 116 191 102 191 -5 0 -40 -40 -79 -89
-173 -215 -418 -398 -627 -466 -140 -45 -484 -61 -685 -31 -562 85 -1023 416
-1330 956 -64 112 -70 119 -460 519 -218 224 -482 492 -589 596 -292 287 -504
528 -730 830 -629 838 -965 1654 -997 2420 -11 258 39 559 135 815 100 264
219 472 501 877 114 164 156 218 161 205 3 -9 8 -69 11 -132 5 -112 5 -116
-19 -133 -29 -23 -37 -18 -75 49 -17 30 -32 53 -35 50 -8 -7 18 -89 44 -141
34 -66 133 -162 208 -201 207 -109 522 -158 869 -134 308 20 493 65 515 124
14 36 59 335 77 509 12 112 14 211 10 372 -5 222 -18 320 -61 470 -10 33 -20
67 -22 75 -9 32 52 -90 88 -177 42 -99 92 -262 104 -333 13 -78 27 -82 20 -5
-24 264 -135 571 -296 815 -69 105 -201 244 -294 309 -33 23 -91 63 -129 90
-125 88 -336 177 -467 196 l-46 7 -7 216 c-4 120 -15 329 -24 465 l-17 248 50
-6 c81 -11 178 -49 257 -101 89 -59 244 -212 405 -399 67 -77 162 -187 213
-245 190 -217 283 -341 584 -777 103 -150 197 -279 209 -288 45 -31 106 -11
124 42 18 51 -49 373 -133 642 -49 156 -163 467 -219 598 -243 563 -625 1024
-978 1182 -142 64 -199 76 -354 76 -79 0 -143 2 -143 5 0 3 7 41 15 85 8 44
24 132 35 195 24 143 76 303 141 440 53 111 138 260 150 260 3 0 39 -14 80
-31z m7054 -2809 c26 -69 82 -197 125 -286 l77 -161 -81 56 c-45 30 -84 60
-88 65 -15 22 -71 184 -94 276 -28 108 -54 273 -53 340 0 42 3 37 33 -60 18
-58 54 -161 81 -230z m-7377 157 l33 -12 -51 -38 -50 -37 0 50 c0 55 6 59 68
37z m189 -76 c92 -45 177 -97 243 -150 16 -13 -2 -8 -45 14 -188 92 -400 54
-569 -104 l-38 -36 22 45 c66 132 206 280 264 280 12 0 67 -22 123 -49z m21
-356 c111 -47 192 -198 192 -361 0 -213 -144 -310 -280 -188 -81 74 -124 184
-123 319 0 149 58 237 161 244 7 1 29 -6 50 -14z m571 -332 c159 -406 219
-927 156 -1353 -21 -141 -27 -158 -62 -171 -81 -32 -197 -41 -428 -35 -126 3
-252 10 -280 15 -49 9 -48 9 25 8 65 -1 83 3 129 28 128 70 270 243 345 420
44 104 90 276 112 420 19 123 22 408 5 525 -11 78 -41 213 -57 253 -3 9 -4 17
-1 17 3 0 28 -57 56 -127z m-4873 -983 c214 -105 398 -433 535 -955 21 -82 39
-155 39 -162 0 -7 -24 -1 -63 17 -130 59 -214 74 -404 75 -95 0 -173 1 -173 3
0 12 86 255 114 322 20 46 36 91 36 100 -1 27 -116 -161 -189 -306 l-70 -141
-105 -17 c-128 -20 -147 -20 -272 -1 -54 8 -158 18 -230 21 l-131 7 8 46 c17
106 80 334 119 426 101 244 169 355 279 457 119 110 218 150 358 145 68 -3 92
-9 149 -37z m3732 -287 c22 -38 66 -96 97 -131 l57 -63 -53 21 c-30 12 -74 34
-98 48 l-44 27 -1 83 c0 45 0 82 0 82 1 0 20 -30 42 -67z m-4625 -259 c30 -5
36 -10 32 -23 -27 -87 -57 -255 -62 -353 l-6 -117 -56 -6 c-306 -33 -478 -119
-548 -273 -52 -111 -39 -286 29 -424 77 -154 267 -269 488 -294 86 -10 86 -10
72 -96 -17 -98 -67 -201 -128 -262 -130 -131 -273 -128 -479 10 -159 106 -241
196 -318 349 -86 174 -121 362 -121 660 -1 211 9 281 55 397 88 224 292 383
557 433 57 11 124 13 262 10 102 -3 202 -8 223 -11z m5090 -1 c-7 -2 -19 -2
-25 0 -7 3 -2 5 12 5 14 0 19 -2 13 -5z m-3897 -584 c112 -19 304 -94 304
-118 0 -5 33 -27 73 -49 149 -83 261 -197 336 -341 62 -119 82 -204 88 -366
10 -267 -37 -477 -236 -1073 -189 -566 -186 -553 -185 -802 0 -298 20 -427
150 -974 l86 -359 -12 -81 c-43 -291 -280 -899 -582 -1486 -118 -231 -326
-600 -337 -600 -4 0 -15 29 -24 65 -9 35 -53 185 -97 333 -107 365 -179 624
-243 887 -30 121 -75 290 -100 375 -83 282 -185 643 -212 750 -14 58 -28 113
-31 123 -4 14 1 17 31 17 57 0 204 39 275 73 90 43 218 170 259 257 17 35 29
66 26 68 -2 2 -38 -26 -80 -63 -129 -112 -313 -217 -440 -251 -86 -22 -258
-29 -341 -14 -101 18 -280 74 -367 114 -285 130 -513 397 -598 702 -29 103
-32 245 -5 325 16 52 22 58 68 80 89 42 135 114 145 230 7 81 -15 189 -57 278
-25 52 -27 61 -12 57 101 -30 237 -31 323 -1 142 49 222 211 175 354 -9 27
-16 52 -16 55 0 3 20 6 43 6 140 0 287 120 344 280 l17 48 30 -51 c57 -95 174
-129 302 -88 38 12 74 24 81 27 7 3 -14 -40 -46 -95 -209 -362 -262 -782 -144
-1155 26 -83 71 -182 79 -174 2 3 -7 31 -22 63 -65 148 -100 358 -91 549 18
404 198 768 550 1115 62 61 83 88 80 102 -7 24 -8 24 -199 -6 -428 -67 -730
-52 -930 46 -159 79 -252 242 -242 429 7 131 69 213 202 269 153 64 410 79
681 41 179 -26 221 -25 390 4 77 14 154 26 170 29 63 9 284 7 341 -4z m-2422
-265 c3 -9 6 -29 6 -46 0 -107 83 -401 160 -565 129 -276 362 -502 554 -538
34 -7 37 -11 52 -63 54 -186 -83 -337 -287 -318 -84 7 -360 93 -426 131 -170
100 -311 345 -357 620 -41 239 -40 443 1 557 36 100 118 180 223 218 67 24 66
24 74 4z m1846 -657 c-69 -74 -180 -209 -180 -218 0 -13 -94 -40 -157 -46 -91
-9 -133 11 -226 104 -72 72 -77 80 -77 120 l0 43 123 0 c123 0 319 19 457 44
127 23 126 24 60 -47z m-2230 -398 c31 -9 46 -24 81 -78 59 -89 207 -236 302
-300 74 -50 194 -113 235 -123 31 -9 57 -122 57 -253 0 -103 -2 -113 -30 -164
-16 -29 -46 -72 -67 -96 -36 -40 -39 -42 -75 -34 -21 5 -90 12 -155 17 -102 7
-124 12 -183 41 -78 39 -187 137 -252 229 -82 114 -132 269 -152 462 -9 98 -4
233 9 225 4 -3 15 7 24 21 39 58 119 79 206 53z m3603 -2098 c120 -46 257
-389 326 -813 22 -135 37 -626 35 -1173 0 -424 -50 -815 -153 -1202 -16 -62
-26 -113 -21 -113 8 0 81 200 123 340 122 405 191 886 191 1340 -1 229 -7 299
-50 541 -6 33 -4 37 20 43 15 4 45 2 68 -5 55 -14 162 -121 211 -210 89 -160
199 -554 262 -943 70 -426 63 -991 -19 -1584 -13 -90 -20 -165 -16 -167 4 -2
26 82 49 188 111 513 153 965 131 1402 -20 410 -76 651 -215 928 -31 61 -54
111 -53 113 2 1 75 25 163 52 742 231 1414 342 2081 342 l282 0 124 -127 c484
-496 647 -674 689 -751 72 -131 178 -283 281 -403 l48 -56 5 -324 c2 -178 9
-403 15 -499 74 -1219 391 -2492 921 -3693 206 -467 547 -1122 777 -1492 308
-496 656 -992 974 -1390 114 -142 206 -260 204 -262 -2 -2 -81 10 -177 26
-409 70 -865 214 -1259 397 -1354 628 -2264 1758 -2644 3282 -83 333 -100 432
-98 577 5 297 60 795 123 1109 89 443 270 1080 428 1506 27 72 44 129 39 128
-13 -5 -75 -144 -178 -398 -126 -313 -219 -584 -315 -915 -33 -113 -54 -172
-58 -160 -3 11 -11 83 -17 160 -6 77 -15 176 -21 220 -39 333 -29 766 26 1085
8 47 17 101 20 120 13 74 -14 3 -44 -118 -68 -270 -100 -552 -102 -878 -1
-259 17 -413 71 -603 l39 -139 -39 -169 c-69 -293 -105 -536 -114 -782 -4 -90
-9 -127 -19 -132 -7 -5 -77 -104 -155 -221 l-142 -214 -138 -91 c-322 -213
-742 -428 -1132 -580 -641 -249 -1341 -402 -1985 -433 -734 -35 -1590 174
-2455 598 -372 183 -750 403 -1004 585 l-49 36 34 5 c202 30 269 42 367 67
296 77 628 236 932 447 524 363 936 749 1321 1237 666 843 1219 1926 1407
2755 93 408 99 762 16 1009 -48 143 -147 284 -242 343 -36 22 -34 28 13 52 34
18 63 20 98 7z m-2 -522 c30 -143 27 -387 -6 -586 -70 -426 -217 -842 -500
-1418 -351 -711 -774 -1361 -1254 -1924 -148 -173 -432 -464 -586 -600 -517
-458 -1064 -725 -1577 -771 -172 -15 -162 -17 -230 48 l-60 57 5 65 c14 172
178 681 301 940 23 48 26 51 21 21 -18 -116 -27 -235 -22 -308 9 -153 78 -251
202 -284 111 -31 302 19 538 140 436 222 806 511 1180 919 84 91 195 211 247
267 216 228 403 464 585 737 89 134 97 150 92 185 -4 35 7 57 118 243 432 724
775 1462 889 1915 43 168 43 225 2 410 -20 87 -36 164 -35 170 2 31 73 -147
90 -226z m-1572 -926 c0 -25 -1 -25 -8 -8 -5 11 -7 23 -4 28 8 14 13 7 12 -20z
m-39 -26 c0 -1 -28 -29 -62 -62 l-63 -60 60 63 c55 58 65 67 65 59z m47 -54
c-3 -10 -5 -4 -5 12 0 17 2 24 5 18 2 -7 2 -21 0 -30z m10 -75 c-3 -7 -5 -2
-5 12 0 14 2 19 5 13 2 -7 2 -19 0 -25z m-257 -83 c-24 -25 -46 -45 -49 -45
-3 0 15 20 39 45 24 25 46 45 49 45 3 0 -15 -20 -39 -45z m267 13 c-3 -7 -5
-2 -5 12 0 14 2 19 5 13 2 -7 2 -19 0 -25z m10 -60 c-3 -7 -5 -2 -5 12 0 14 2
19 5 13 2 -7 2 -19 0 -25z m-327 -11 c0 -2 -12 -14 -27 -28 l-28 -24 24 28
c23 25 31 32 31 24z m337 -49 c-3 -8 -6 -5 -6 6 -1 11 2 17 5 13 3 -3 4 -12 1
-19z m-397 -21 c0 -2 -10 -12 -22 -23 l-23 -19 19 23 c18 21 26 27 26 19z
m407 -29 c-3 -8 -6 -5 -6 6 -1 11 2 17 5 13 3 -3 4 -12 1 -19z m-457 -31 c0
-2 -12 -14 -27 -28 l-28 -24 24 28 c23 25 31 32 31 24z m477 -69 c-3 -8 -6 -5
-6 6 -1 11 2 17 5 13 3 -3 4 -12 1 -19z m-537 -1 c0 -2 -12 -14 -27 -28 l-28
-24 24 28 c23 25 31 32 31 24z m547 -49 c-3 -7 -5 -2 -5 12 0 14 2 19 5 13 2
-7 2 -19 0 -25z m-607 -21 c0 -2 -10 -12 -22 -23 l-23 -19 19 23 c18 21 26 27
26 19z m-40 -51 c0 -2 -8 -10 -17 -17 -16 -13 -17 -12 -4 4 13 16 21 21 21 13z
m-30 -40 c0 -2 -8 -10 -17 -17 -16 -13 -17 -12 -4 4 13 16 21 21 21 13z m-70
-90 c0 -2 -8 -10 -17 -17 -16 -13 -17 -12 -4 4 13 16 21 21 21 13z m-30 -40
c0 -2 -8 -10 -17 -17 -16 -13 -17 -12 -4 4 13 16 21 21 21 13z m-30 -39 c0 -2
-10 -12 -22 -23 l-23 -19 19 23 c18 21 26 27 26 19z m-40 -51 c0 -2 -8 -10
-17 -17 -16 -13 -17 -12 -4 4 13 16 21 21 21 13z m-30 -40 c0 -2 -8 -10 -17
-17 -16 -13 -17 -12 -4 4 13 16 21 21 21 13z m-60 -80 c0 -2 -8 -10 -17 -17
-16 -13 -17 -12 -4 4 13 16 21 21 21 13z m-50 -70 c0 -2 -8 -10 -17 -17 -16
-13 -17 -12 -4 4 13 16 21 21 21 13z m-70 -100 c0 -2 -8 -10 -17 -17 -16 -13
-17 -12 -4 4 13 16 21 21 21 13z m-30 -40 c0 -2 -8 -10 -17 -17 -16 -13 -17
-12 -4 4 13 16 21 21 21 13z m-30 -40 c0 -2 -8 -10 -17 -17 -16 -13 -17 -12
-4 4 13 16 21 21 21 13z m-50 -70 c0 -2 -8 -10 -17 -17 -16 -13 -17 -12 -4 4
13 16 21 21 21 13z m15054 -89 c359 -188 870 -533 1250 -845 592 -487 1141
-1072 1590 -1695 566 -785 994 -1670 1271 -2629 118 -405 235 -930 235 -1048
0 -199 -120 -434 -337 -661 -476 -496 -1308 -911 -2358 -1177 -358 -91 -1072
-222 -1210 -222 l-48 0 74 52 c466 326 784 1178 968 2588 28 216 98 815 115
995 80 804 60 1375 -54 1573 -25 41 -16 41 91 2 237 -86 690 -380 1074 -695
254 -209 572 -514 730 -703 33 -39 61 -67 63 -62 4 12 -117 173 -247 330 -270
325 -824 831 -1141 1042 -233 155 -471 240 -628 224 -223 -23 -266 -46 -369
-202 -20 -30 -37 -54 -38 -54 -1 0 -8 44 -15 98 -57 462 -147 765 -264 891
-153 163 -761 399 -1242 481 -307 53 -489 30 -632 -77 -18 -14 -34 -23 -36
-22 -1 2 -13 56 -25 119 -29 149 -122 493 -162 599 -21 53 -19 6 5 -135 28
-167 72 -491 80 -602 l6 -73 -43 -47 c-49 -53 -144 -172 -199 -247 -53 -73
-222 -406 -267 -525 l-39 -102 -73 -36 c-186 -89 -305 -294 -317 -545 l-5
-107 -36 -32 c-165 -145 -235 -356 -187 -563 14 -59 14 -60 -11 -85 -37 -36
-88 -118 -109 -175 -29 -79 -25 -273 10 -444 88 -434 237 -760 456 -993 127
-136 275 -236 425 -288 214 -74 433 10 567 216 l40 62 78 -96 c96 -120 248
-267 368 -357 50 -37 90 -71 87 -74 -10 -17 -178 -130 -289 -195 -421 -246
-1028 -429 -1679 -506 l-98 -11 -126 117 c-208 195 -488 496 -678 729 -559
683 -1033 1497 -1370 2355 -75 190 -187 510 -222 636 l-20 70 46 30 c77 48
339 234 471 334 708 533 1619 1324 2667 2317 106 101 203 185 215 188 13 2 95
16 183 30 203 34 454 85 663 136 171 42 508 137 577 163 22 8 42 15 44 15 2 1
59 -27 125 -62z m-15094 29 c0 -2 -8 -10 -17 -17 -16 -13 -17 -12 -4 4 13 16
21 21 21 13z m-60 -85 c-5 -11 -15 -23 -21 -27 -6 -3 -3 5 6 20 20 30 30 35
15 7z m9740 -107 c96 -25 252 -67 345 -94 305 -87 521 -142 633 -160 39 -7 72
-15 72 -18 0 -25 -1053 -1045 -1064 -1031 -1 2 -23 96 -49 209 -46 206 -66
317 -112 640 -13 96 -33 231 -44 300 -10 69 -21 145 -24 168 l-5 44 36 -7 c20
-3 116 -26 212 -51z m-9810 2 c0 -2 -8 -10 -17 -17 -16 -13 -17 -12 -4 4 13
16 21 21 21 13z m-276 -414 c-9 -16 -25 -39 -36 -53 l-20 -24 16 28 c28 48 48
77 53 77 2 0 -3 -13 -13 -28z m-10039 -48 c881 -52 2124 -224 3015 -419 357
-78 380 -79 575 -21 220 66 337 80 457 55 83 -17 205 -80 307 -158 52 -40 112
-83 135 -96 64 -37 341 -97 651 -140 105 -14 253 -39 330 -56 138 -29 286 -53
518 -86 l119 -17 83 -88 c279 -293 558 -924 779 -1765 19 -73 31 -133 27 -133
-7 0 -852 226 -1306 348 -227 62 -474 107 -747 138 -241 27 -248 27 -345 11
-113 -18 -212 -56 -309 -117 -101 -64 -200 -108 -258 -115 -108 -14 -260 30
-476 137 -145 71 -145 71 -243 76 -215 10 -481 -34 -1897 -314 -991 -195 -955
-188 -1215 -233 -975 -170 -1452 -173 -1759 -13 -182 95 -306 308 -293 503 7
103 30 151 109 225 69 64 187 124 313 160 131 37 441 29 694 -17 123 -22 111
-21 111 -10 0 11 -202 79 -325 109 -253 64 -521 66 -673 5 -35 -14 -66 -23
-69 -20 -2 3 -9 37 -14 76 -15 125 12 258 74 363 30 52 100 96 230 147 l92 36
175 0 c141 -1 196 -5 284 -23 60 -12 111 -20 113 -18 13 13 -206 101 -327 132
-57 14 -111 19 -225 19 -149 0 -151 0 -216 -32 -37 -18 -69 -33 -72 -33 -13 0
-24 93 -16 135 16 85 103 224 157 249 19 9 80 46 135 82 137 88 207 109 359
109 65 0 118 3 118 6 0 10 -99 47 -160 60 -127 27 -346 -14 -440 -82 l-43 -31
7 28 c19 76 110 182 174 203 22 8 62 30 89 51 103 77 217 128 326 144 26 4 47
11 47 16 0 15 -140 33 -201 26 -74 -9 -156 -30 -231 -60 l-59 -24 6 31 c4 18
18 61 32 97 84 214 231 337 432 360 98 11 526 3 846 -16z m9865 -224 c-6 -11
-13 -20 -16 -20 -2 0 0 9 6 20 6 11 13 20 16 20 2 0 0 -9 -6 -20z m-70 -110
c-6 -11 -13 -20 -16 -20 -2 0 0 9 6 20 6 11 13 20 16 20 2 0 0 -9 -6 -20z
m-50 -80 c-6 -11 -13 -20 -16 -20 -2 0 0 9 6 20 6 11 13 20 16 20 2 0 0 -9 -6
-20z m-50 -80 c-6 -11 -13 -20 -16 -20 -2 0 0 9 6 20 6 11 13 20 16 20 2 0 0
-9 -6 -20z m-3015 -195 c101 -7 366 -41 680 -86 295 -43 1807 -279 1813 -284
1 -1 -21 -51 -49 -111 -186 -398 -341 -866 -343 -1041 -1 -64 2 -76 29 -114
60 -85 335 -297 640 -494 738 -475 1606 -834 2333 -965 278 -50 435 -64 742
-64 324 0 512 16 860 74 813 137 1650 454 2344 889 71 45 130 81 131 81 1 0
-31 -66 -71 -146 -83 -168 -164 -367 -189 -469 -36 -144 -31 -178 79 -475 116
-314 295 -695 445 -949 56 -93 101 -178 101 -189 0 -10 72 -160 159 -333 454
-895 843 -1920 1151 -3029 88 -316 245 -958 237 -967 -2 -1 -55 45 -118 103
-225 209 -715 628 -882 753 -29 22 -86 54 -125 70 -56 23 -120 68 -289 202
-692 548 -1528 1125 -2188 1511 -541 316 -1180 589 -1683 719 -108 27 -205 53
-214 55 -10 3 -18 1 -18 -4 0 -6 97 -49 215 -96 381 -152 745 -324 1165 -549
868 -464 1431 -806 2145 -1303 242 -169 615 -437 612 -440 -1 -2 -50 13 -107
32 -287 95 -808 233 -1205 319 -716 155 -1705 298 -2503 360 -174 13 -342 27
-372 30 -243 25 -885 48 -1480 52 -1076 8 -2113 -39 -3170 -142 -256 -25 -473
-45 -482 -45 -14 0 -12 8 13 45 128 189 206 530 251 1090 17 213 17 1375 0
1650 -30 490 -50 742 -88 1115 -26 254 -82 716 -89 737 -2 6 1 24 7 40 12 32
-6 107 -99 408 -245 797 -572 1445 -863 1712 l-52 48 65 62 c103 96 257 161
352 147 11 -2 61 -6 110 -9z m2762 -497 c-3 -8 -6 -5 -6 6 -1 11 2 17 5 13 3
-3 4 -12 1 -19z m15568 -74 c469 -67 1035 -250 1186 -383 100 -88 188 -327
248 -675 32 -180 34 -229 17 -416 -9 -96 -16 -261 -16 -366 0 -340 -38 -648
-107 -874 -50 -162 -48 -154 -33 -145 22 13 99 187 144 327 78 237 137 580
141 823 3 149 3 150 26 152 83 9 129 -154 129 -453 0 -338 -61 -778 -211
-1523 -47 -233 -213 -948 -223 -958 -1 -1 -73 83 -160 188 -90 108 -170 195
-184 200 -42 16 -73 2 -144 -67 -114 -110 -251 -162 -454 -171 l-121 -6 -91
62 c-240 161 -454 382 -582 601 -21 36 -46 72 -54 79 -8 7 -33 46 -55 86 -100
182 -239 328 -377 397 l-87 43 -121 0 c-106 0 -127 -3 -169 -24 -27 -12 -46
-25 -43 -28 2 -3 35 0 73 7 88 16 163 3 260 -45 109 -54 188 -145 287 -331
l79 -149 -12 -70 c-33 -195 -164 -335 -315 -335 -126 1 -309 101 -456 250
-180 182 -313 432 -408 767 -62 216 -78 319 -64 397 32 174 97 238 337 337
168 68 428 135 675 173 58 9 120 19 138 22 58 9 23 24 -56 24 -299 -1 -659
-53 -887 -129 l-85 -29 -7 27 c-4 14 -8 60 -8 101 0 66 4 84 34 144 52 107
142 194 259 254 191 98 353 152 602 202 164 33 451 75 583 86 233 18 -40 39
-328 24 -221 -11 -398 -30 -551 -60 -118 -23 -263 -64 -305 -85 l-29 -16 0 38
c0 96 68 263 138 336 72 75 139 93 408 106 381 19 730 31 824 29 164 -5 370 2
370 11 0 5 -13 12 -29 16 -21 4 -33 17 -47 48 -79 178 -205 309 -299 309 -79
0 -210 -74 -373 -210 l-83 -69 -242 5 c-133 2 -243 6 -245 7 -8 7 111 253 175
361 211 355 418 564 590 594 58 10 202 3 338 -16z m-15598 -56 c-3 -7 -5 -2
-5 12 0 14 2 19 5 13 2 -7 2 -19 0 -25z m-10 -50 c-3 -7 -5 -2 -5 12 0 14 2
19 5 13 2 -7 2 -19 0 -25z m-10 -155 c-2 -21 -4 -4 -4 37 0 41 2 58 4 38 2
-21 2 -55 0 -75z m523 -23 c-8 -5 -19 -10 -25 -10 -5 0 -3 5 5 10 8 5 20 10
25 10 6 0 3 -5 -5 -10z m-90 -40 c-8 -5 -19 -10 -25 -10 -5 0 -3 5 5 10 8 5
20 10 25 10 6 0 3 -5 -5 -10z m-197 -67 c-7 -2 -19 -2 -25 0 -7 3 -2 5 12 5
14 0 19 -2 13 -5z m-75 -10 c-16 -2 -40 -2 -55 0 -16 2 -3 4 27 4 30 0 43 -2
28 -4z m15435 -480 c73 -71 133 -130 135 -133 1 -3 -66 2 -150 12 -84 9 -235
24 -336 32 -101 8 -186 16 -189 19 -2 3 46 36 109 73 117 70 236 123 276 124
16 0 62 -38 155 -127z m1904 -404 c124 -245 140 -1344 32 -2344 -126 -1177
-441 -2076 -869 -2479 -144 -135 -308 -216 -440 -216 -158 0 -267 129 -316
374 -13 65 -24 122 -24 125 0 2 16 -22 36 -55 175 -292 440 -276 649 41 65 98
310 594 358 725 20 52 49 149 67 215 17 66 37 131 45 145 13 24 108 446 174
775 63 314 151 941 186 1330 9 99 23 236 31 305 21 176 29 507 15 600 -21 139
-72 247 -127 272 -13 6 -24 16 -24 23 0 6 23 45 50 86 52 76 107 132 124 126
6 -2 20 -23 33 -48z m-21000 -275 c-3 -3 -12 -4 -19 -1 -8 3 -5 6 6 6 11 1 17
-2 13 -5z m120 -30 c-3 -3 -12 -4 -19 -1 -8 3 -5 6 6 6 11 1 17 -2 13 -5z
m-150 -606 c-1 -84 -3 -16 -3 152 0 168 2 236 3 153 2 -84 2 -222 0 -305z m10
-400 c-2 -24 -4 -7 -4 37 0 44 2 63 4 43 2 -21 2 -57 0 -80z m10 -195 c-2 -21
-4 -6 -4 32 0 39 2 55 4 38 2 -18 2 -50 0 -70z m10 -140 c-2 -16 -4 -5 -4 22
0 28 2 40 4 28 2 -13 2 -35 0 -50z m10 -165 c-2 -13 -4 -5 -4 17 -1 22 1 32 4
23 2 -10 2 -28 0 -40z m10 -115 c-2 -16 -4 -5 -4 22 0 28 2 40 4 28 2 -13 2
-35 0 -50z m10 -100 c-3 -10 -5 -2 -5 17 0 19 2 27 5 18 2 -10 2 -26 0 -35z
m10 -120 c-3 -10 -5 -2 -5 17 0 19 2 27 5 18 2 -10 2 -26 0 -35z m10 -95 c-2
-13 -4 -3 -4 22 0 25 2 35 4 23 2 -13 2 -33 0 -45z m10 -70 c-3 -7 -5 -2 -5
12 0 14 2 19 5 13 2 -7 2 -19 0 -25z m10 -100 c-3 -7 -5 -2 -5 12 0 14 2 19 5
13 2 -7 2 -19 0 -25z m10 -75 c-3 -10 -5 -2 -5 17 0 19 2 27 5 18 2 -10 2 -26
0 -35z m10 -75 c-3 -8 -6 -5 -6 6 -1 11 2 17 5 13 3 -3 4 -12 1 -19z m10 -85
c-3 -10 -5 -2 -5 17 0 19 2 27 5 18 2 -10 2 -26 0 -35z m10 -55 c-3 -7 -5 -2
-5 12 0 14 2 19 5 13 2 -7 2 -19 0 -25z m10 -80 c-3 -7 -5 -2 -5 12 0 14 2 19
5 13 2 -7 2 -19 0 -25z m10 -70 c-3 -7 -5 -2 -5 12 0 14 2 19 5 13 2 -7 2 -19
0 -25z m10 -50 c-3 -8 -6 -5 -6 6 -1 11 2 17 5 13 3 -3 4 -12 1 -19z m10 -70
c-3 -8 -6 -5 -6 6 -1 11 2 17 5 13 3 -3 4 -12 1 -19z m10 -60 c-3 -7 -5 -2 -5
12 0 14 2 19 5 13 2 -7 2 -19 0 -25z m10 -40 c-3 -8 -6 -5 -6 6 -1 11 2 17 5
13 3 -3 4 -12 1 -19z m10823 -262 c561 -579 1233 -1033 2000 -1353 186 -77
484 -180 635 -218 61 -16 112 -30 113 -31 2 -1 -22 -33 -54 -71 -124 -146
-343 -456 -506 -718 -294 -472 -649 -1160 -754 -1461 -15 -43 -30 -82 -33 -86
-4 -4 -72 59 -153 140 l-146 147 -92 385 c-265 1119 -656 2250 -1126 3260
l-123 265 52 -60 c28 -33 112 -123 187 -199z m-10813 192 c-3 -8 -6 -5 -6 6
-1 11 2 17 5 13 3 -3 4 -12 1 -19z m10 -65 c-3 -10 -5 -4 -5 12 0 17 2 24 5
18 2 -7 2 -21 0 -30z m10 -45 c-3 -8 -6 -5 -6 6 -1 11 2 17 5 13 3 -3 4 -12 1
-19z m19251 -5 c-26 -4 -27 -7 -31 -76 l-3 -72 -2 78 -2 77 33 -1 c29 -2 30
-2 5 -6z m-19241 -55 c-3 -8 -6 -5 -6 6 -1 11 2 17 5 13 3 -3 4 -12 1 -19z
m10 -50 c-3 -7 -5 -2 -5 12 0 14 2 19 5 13 2 -7 2 -19 0 -25z m20 -100 c-3 -8
-6 -5 -6 6 -1 11 2 17 5 13 3 -3 4 -12 1 -19z m10 -50 c-3 -7 -5 -2 -5 12 0
14 2 19 5 13 2 -7 2 -19 0 -25z m19180 -150 c-2 -29 -3 -6 -3 52 0 58 1 81 3
53 2 -29 2 -77 0 -105z m-19170 110 c-3 -8 -6 -5 -6 6 -1 11 2 17 5 13 3 -3 4
-12 1 -19z m20 -100 c-3 -8 -6 -5 -6 6 -1 11 2 17 5 13 3 -3 4 -12 1 -19z m10
-40 c-3 -8 -6 -5 -6 6 -1 11 2 17 5 13 3 -3 4 -12 1 -19z m20 -80 c-3 -8 -6
-5 -6 6 -1 11 2 17 5 13 3 -3 4 -12 1 -19z m980 -10 c-3 -8 -6 -5 -6 6 -1 11
2 17 5 13 3 -3 4 -12 1 -19z m18150 -85 c-2 -16 -4 -5 -4 22 0 28 2 40 4 28 2
-13 2 -35 0 -50z m-19100 -35 c-3 -8 -6 -5 -6 6 -1 11 2 17 5 13 3 -3 4 -12 1
-19z m20 -80 c-3 -8 -6 -5 -6 6 -1 11 2 17 5 13 3 -3 4 -12 1 -19z m19090 -30
c-2 -13 -4 -5 -4 17 -1 22 1 32 4 23 2 -10 2 -28 0 -40z m-19058 -68 c0 -10
-3 -8 -9 5 -12 27 -12 43 0 25 5 -8 9 -22 9 -30z m878 18 c-3 -8 -6 -5 -6 6
-1 11 2 17 5 13 3 -3 4 -12 1 -19z m18190 -25 c-3 -10 -5 -4 -5 12 0 17 2 24
5 18 2 -7 2 -21 0 -30z m690 -55 c-3 -8 -6 -5 -6 6 -1 11 2 17 5 13 3 -3 4
-12 1 -19z m-680 -20 c-3 -7 -5 -2 -5 12 0 14 2 19 5 13 2 -7 2 -19 0 -25z
m-18210 -20 c-3 -7 -5 -2 -5 12 0 14 2 19 5 13 2 -7 2 -19 0 -25z m18220 -40
c-3 -8 -6 -5 -6 6 -1 11 2 17 5 13 3 -3 4 -12 1 -19z m10 -40 c-3 -8 -6 -5 -6
6 -1 11 2 17 5 13 3 -3 4 -12 1 -19z m614 -5 c-12 -20 -14 -14 -5 12 4 9 9 14
11 11 3 -2 0 -13 -6 -23z m-18864 -75 c-3 -8 -6 -5 -6 6 -1 11 2 17 5 13 3 -3
4 -12 1 -19z m18836 7 c-3 -9 -8 -14 -10 -11 -3 3 -2 9 2 15 9 16 15 13 8 -4z
m-18846 -77 c-3 -7 -5 -2 -5 12 0 14 2 19 5 13 2 -7 2 -19 0 -25z m18803 -8
c-6 -11 -13 -20 -16 -20 -2 0 0 9 6 20 6 11 13 20 16 20 2 0 0 -9 -6 -20z
m-18813 -42 c-3 -8 -6 -5 -6 6 -1 11 2 17 5 13 3 -3 4 -12 1 -19z m-10 -65
c-3 -10 -5 -4 -5 12 0 17 2 24 5 18 2 -7 2 -21 0 -30z m-667 -8 c0 -5 -5 -3
-10 5 -5 8 -10 20 -10 25 0 6 5 3 10 -5 5 -8 10 -19 10 -25z m19430 21 c0 -2
-8 -10 -17 -17 -16 -13 -17 -12 -4 4 13 16 21 21 21 13z m-396 -22 c3 -8 2
-12 -4 -9 -6 3 -10 10 -10 16 0 14 7 11 14 -7z m-18377 -46 c-3 -7 -5 -2 -5
12 0 14 2 19 5 13 2 -7 2 -19 0 -25z m18723 8 c0 -2 -8 -10 -17 -17 -16 -13
-17 -12 -4 4 13 16 21 21 21 13z m-18733 -48 c-3 -8 -6 -5 -6 6 -1 11 2 17 5
13 3 -3 4 -12 1 -19z m18448 -8 c10 -11 16 -20 13 -20 -3 0 -13 9 -23 20 -10
11 -16 20 -13 20 3 0 13 -9 23 -20z m230 10 c-3 -5 -16 -15 -28 -21 -19 -9
-19 -8 3 10 28 23 34 26 25 11z m-19265 -65 c0 -5 -5 -3 -10 5 -5 8 -10 20
-10 25 0 6 5 3 10 -5 5 -8 10 -19 10 -25z m19122 15 l43 -9 -44 3 c-24 3 -49
10 -55 17 -8 9 -8 10 1 5 7 -4 32 -11 55 -16z m-18555 -42 c-3 -8 -6 -5 -6 6
-1 11 2 17 5 13 3 -3 4 -12 1 -19z m18133 -74 c0 -51 88 -204 155 -268 94 -89
206 -121 464 -133 l153 -6 -6 -91 c-34 -449 -145 -1408 -195 -1666 -87 -456
-161 -877 -161 -918 0 -121 62 -291 245 -672 168 -351 191 -417 183 -525 -11
-133 -77 -223 -476 -653 l-142 -154 -80 -162 c-43 -88 -109 -237 -145 -331
-254 -646 -312 -786 -465 -1102 -237 -490 -510 -903 -759 -1148 -88 -86 -75
-89 22 -5 253 222 522 578 761 1005 161 289 403 795 611 1278 159 372 165 383
261 504 48 62 90 111 92 109 4 -4 -53 -634 -79 -876 -68 -633 -147 -1167 -255
-1725 -84 -433 -252 -1140 -339 -1425 -32 -102 -62 -200 -67 -219 -5 -19 -37
-105 -70 -190 -155 -402 -384 -1053 -448 -1273 -277 -946 -388 -1213 -626
-1506 -47 -57 -18 -45 42 18 223 234 378 551 625 1275 62 182 133 382 159 445
146 357 175 423 177 400 2 -14 14 -269 28 -567 30 -642 33 -1015 9 -1106 -74
-285 -401 -591 -900 -840 -153 -77 -195 -94 -454 -192 -506 -190 -975 -282
-1517 -300 -219 -7 -572 15 -663 41 -163 47 -619 252 -880 395 -1008 554
-1587 1212 -1700 1931 -43 277 -63 893 -41 1262 42 695 134 1274 371 2341 49
220 94 432 101 470 17 101 6 432 -35 1050 -51 747 -66 1033 -71 1350 -3 154
-7 333 -10 399 l-4 119 27 -44 c155 -246 473 -812 769 -1369 507 -951 942
-1931 1454 -3273 98 -257 312 -849 364 -1007 37 -114 55 -151 55 -116 0 26
-114 406 -236 790 -355 1108 -769 2187 -1232 3207 -403 886 -792 1538 -1270
2127 l-35 42 114 -70 c219 -136 498 -266 665 -310 99 -26 144 -26 177 0 25 20
26 27 29 122 l3 102 110 -94 c241 -206 498 -486 708 -768 287 -387 619 -1004
852 -1582 78 -192 116 -276 108 -235 -3 17 -30 118 -59 225 -128 473 -348 943
-631 1352 -306 442 -649 811 -1012 1087 l-83 64 7 171 c4 94 10 207 13 251 l7
80 30 -3 c17 -2 130 -21 253 -43 291 -52 656 -143 910 -227 l202 -67 0 -55 c0
-89 19 -241 36 -292 9 -28 29 -59 50 -78 33 -28 39 -30 118 -30 131 0 389 50
622 121 l101 31 109 -26 c448 -106 851 -165 1257 -182 101 -4 157 -3 157 3 0
6 -63 12 -152 16 -283 11 -671 73 -1063 169 -149 37 -204 54 -190 59 11 5 85
34 165 65 159 61 340 151 437 214 82 54 160 140 169 187 14 76 -37 498 -96
790 -122 600 -366 1297 -649 1849 -33 65 -59 119 -58 120 1 0 108 -7 237 -18
574 -45 1323 14 1935 153 188 42 441 111 560 152 73 26 85 26 85 1z m-18646
-10 c3 -8 2 -12 -4 -9 -6 3 -10 10 -10 16 0 14 7 11 14 -7z m25 -54 c11 -24
11 -24 -3 -6 -9 11 -16 24 -16 30 0 12 5 7 19 -24z m14111 -10 c96 -49 234
-62 366 -34 42 8 77 14 79 12 10 -11 105 -641 134 -888 66 -558 89 -951 98
-1673 l6 -508 -114 42 c-420 153 -688 223 -1069 279 -74 11 -149 20 -166 20
-17 0 -33 2 -35 5 -12 11 41 409 92 690 102 565 277 1240 474 1830 74 222 83
245 90 245 3 0 23 -9 45 -20z m-13758 -187 c-11 -16 -30 -37 -43 -48 -12 -11
-5 1 16 28 43 52 57 63 27 20z m-227 -3 c10 -11 16 -20 13 -20 -3 0 -13 9 -23
20 -10 11 -16 20 -13 20 3 0 13 -9 23 -20z m128 -77 c-7 -2 -19 -2 -25 0 -7 3
-2 5 12 5 14 0 19 -2 13 -5z m16700 -12600 c-54 -298 -94 -455 -134 -528 -21
-39 -45 -102 -53 -141 -20 -94 -67 -221 -112 -301 -19 -35 -33 -67 -30 -70 9
-10 95 66 141 124 23 30 58 82 78 115 35 60 36 61 46 36 34 -89 133 -295 206
-426 209 -377 432 -686 940 -1303 503 -610 589 -730 672 -928 62 -146 58 -294
-11 -438 -75 -155 -224 -264 -373 -271 -76 -4 -149 3 -171 17 -10 6 -6 18 14
55 47 84 41 217 -15 367 -32 83 -133 241 -146 227 -3 -3 8 -46 25 -97 41 -127
54 -238 36 -321 -8 -36 -20 -90 -27 -120 -31 -143 -97 -215 -199 -215 -56 1
-154 23 -147 34 53 97 65 170 48 293 -22 150 -83 244 -195 297 -65 31 -126 48
-126 34 1 -4 27 -25 60 -45 105 -66 158 -171 147 -294 -8 -87 -61 -239 -102
-296 -29 -40 -44 -50 -91 -64 -67 -19 -121 -15 -186 14 l-48 21 27 56 c58 128
26 245 -100 369 -80 80 -190 141 -308 171 -85 22 -108 15 -49 -15 115 -59 230
-153 280 -232 42 -65 70 -186 70 -304 0 -57 -4 -74 -27 -107 -29 -41 -86 -84
-143 -108 -22 -9 -71 -14 -135 -14 -87 0 -107 3 -155 26 -30 14 -69 38 -86 52
-30 26 -31 27 -26 104 14 257 -189 549 -428 613 -122 33 -291 30 -441 -9 -82
-21 -155 -49 -148 -56 3 -2 43 3 89 11 106 20 296 22 375 5 139 -30 238 -98
313 -214 68 -104 86 -172 87 -317 0 -106 -4 -136 -24 -195 -37 -108 -54 -137
-127 -205 -135 -126 -302 -177 -544 -167 -217 10 -358 51 -486 142 -145 104
-234 251 -299 498 -48 180 -69 371 -90 827 -22 472 -44 636 -131 1005 -152
640 -169 737 -162 935 5 126 7 142 43 235 49 131 137 307 184 370 72 95 73 98
79 323 l5 204 43 -6 c103 -14 403 -17 579 -7 491 30 1086 169 1455 340 25 11
48 21 51 21 3 0 -5 -57 -18 -127z"/>
<path d="M27988 35319 c-304 -24 -702 -131 -1057 -284 -247 -105 -486 -240
-715 -402 -140 -99 -131 -92 -125 -97 2 -2 74 39 159 92 307 191 693 364 1030
459 8 2 -34 -20 -95 -50 -363 -177 -685 -407 -971 -692 -119 -119 -243 -262
-303 -348 -30 -45 -31 -46 -16 -87 83 -234 613 -622 1131 -828 512 -204 1029
-258 1443 -152 562 143 1114 643 1440 1304 89 180 142 315 177 455 28 108 32
216 9 248 -17 24 -179 91 -408 169 -283 96 -539 155 -845 195 -179 23 -670 34
-854 18z m927 -110 c341 -25 688 -118 1011 -269 121 -56 118 -50 80 -182 -92
-317 -384 -774 -695 -1088 -186 -187 -356 -312 -571 -420 -109 -54 -289 -120
-373 -135 l-38 -7 57 83 c166 243 260 545 271 874 10 312 -49 568 -183 796
-53 88 -192 244 -251 280 -47 29 -40 32 142 53 225 26 355 30 550 15z m-1118
-241 c44 -16 74 -38 123 -87 103 -104 147 -217 138 -355 -22 -328 -406 -341
-565 -20 -34 70 -38 85 -41 176 -5 116 10 168 67 231 70 77 167 97 278 55z
m-1053 -409 c-42 -102 -82 -250 -100 -372 -33 -224 -5 -529 66 -730 16 -45 27
-84 24 -87 -9 -9 -327 157 -446 233 -197 126 -340 250 -369 319 l-13 32 85 79
c105 100 283 249 414 347 101 76 358 250 362 246 2 -2 -9 -32 -23 -67z"/>
<path d="M24040 34172 c0 -60 -31 -186 -60 -242 -29 -57 -86 -118 -134 -142
-59 -31 -149 -29 -252 5 -188 62 -336 58 -480 -13 -188 -92 -296 -292 -281
-521 19 -292 233 -516 550 -576 131 -25 358 -6 470 38 44 18 32 27 -50 34
-393 34 -632 152 -736 365 -122 250 -27 514 208 575 75 19 130 19 277 -1 283
-39 425 30 489 236 33 106 38 290 9 290 -6 0 -10 -22 -10 -48z"/>
<path d="M24075 31591 c-69 -17 -134 -70 -170 -141 -29 -56 -45 -153 -45 -275
0 -133 13 -235 60 -460 51 -247 52 -262 60 -745 8 -512 14 -570 74 -752 18
-54 55 -134 82 -180 147 -246 475 -466 798 -532 81 -17 248 -21 308 -7 28 7
40 5 49 -5 6 -8 18 -14 26 -14 21 0 126 63 180 108 99 82 223 284 259 422 32
120 15 330 -37 465 -11 28 -34 111 -50 185 -84 368 -260 748 -517 1114 -167
237 -434 524 -611 655 -175 129 -350 190 -466 162z m163 -162 c92 -49 134 -82
412 -321 234 -202 318 -291 406 -436 24 -40 44 -74 44 -76 0 -13 -146 -31
-245 -31 -96 0 -134 4 -190 22 -205 65 -405 263 -549 543 -87 169 -131 287
-114 308 44 52 128 49 236 -9z"/>
<path d="M33920 30569 c-118 -23 -252 -119 -368 -263 -185 -231 -332 -520
-378 -747 -31 -153 -3 -288 66 -324 33 -17 106 -20 144 -5 42 16 31 30 -19 23
-150 -20 -178 125 -73 380 25 60 51 100 107 164 188 213 371 304 493 244 25
-11 64 -37 87 -57 23 -20 44 -34 47 -31 13 13 -42 111 -84 147 -100 88 -230
78 -362 -28 -47 -38 -41 -28 35 58 175 197 375 291 492 232 22 -12 54 -33 71
-47 43 -36 97 -150 113 -234 7 -39 16 -71 21 -71 24 0 42 78 43 180 0 94 -3
111 -27 163 -55 116 -130 182 -243 212 -65 16 -97 17 -165 4z"/>
<path d="M13606 26215 c260 -425 471 -939 637 -1545 100 -363 178 -779 223
-1189 49 -446 72 -1147 55 -1656 -9 -261 -18 -413 -47 -792 -9 -121 10 -102
30 30 76 495 80 529 101 855 82 1274 -158 2616 -664 3708 -102 222 -275 531
-332 595 l-21 24 18 -30z"/>
<path d="M32086 25269 c-156 -52 -344 -161 -497 -285 -90 -73 -279 -270 -360
-374 -165 -212 -266 -398 -338 -623 -53 -167 -99 -443 -67 -406 2 2 95 186
207 409 216 429 277 535 398 695 184 241 471 478 699 575 28 12 52 26 52 31 0
11 9 13 -94 -22z"/>
<path d="M4435 30923 c-257 -7 -138 -20 257 -27 1055 -17 2059 -82 3153 -202
1854 -203 3375 -517 5183 -1069 702 -214 1464 -505 2146 -819 115 -53 212 -96
217 -96 28 0 -9 27 -163 117 -1020 596 -2262 1076 -3606 1393 -1564 368 -3541
619 -5447 690 -281 11 -1514 20 -1740 13z"/>
<path d="M3545 29971 c-22 -4 226 -10 550 -13 1514 -18 3372 -148 4730 -333
143 -19 361 -49 485 -66 1023 -138 2602 -459 3540 -719 575 -159 724 -204
1170 -352 336 -111 573 -198 905 -330 248 -99 457 -182 465 -185 10 -4 12 -3
5 5 -5 6 -75 39 -155 75 -80 35 -273 122 -430 192 -328 147 -1049 415 -1410
525 -435 132 -806 239 -950 274 -637 156 -930 221 -1500 331 -545 105 -1456
242 -2225 335 -492 59 -1651 163 -2055 185 -58 3 -220 12 -360 20 -416 24
-964 44 -1470 55 -515 11 -1231 11 -1295 1z"/>
<path d="M3220 19714 c0 -6 122 -15 293 -22 1000 -43 2398 -205 3657 -423 927
-161 2131 -417 2870 -610 1493 -391 2594 -742 3873 -1233 1422 -547 3051
-1289 4182 -1906 88 -48 246 -134 350 -190 296 -160 982 -560 1392 -812 342
-210 405 -245 388 -218 -9 15 -647 459 -870 605 -1097 721 -2292 1377 -3515
1932 -1582 718 -3471 1365 -5405 1853 -2158 544 -4322 884 -6400 1005 -346 20
-815 31 -815 19z"/>
<path d="M4685 18579 c33 -4 184 -15 335 -24 909 -52 2032 -183 3190 -371 121
-20 1061 -190 1160 -210 1127 -229 1808 -394 2885 -697 370 -104 1002 -302
1555 -487 334 -111 1307 -470 1555 -573 127 -52 397 -163 600 -245 455 -185
313 -121 1264 -566 194 -91 453 -218 575 -282 736 -388 1058 -556 1061 -552 5
4 -349 209 -920 531 -274 155 -624 331 -1385 697 -232 111 -682 307 -1215 528
-254 105 -1161 438 -1505 553 -806 268 -1925 586 -2730 775 -201 47 -437 103
-525 124 -518 124 -1881 380 -2500 469 -77 11 -265 38 -417 61 -820 119 -1918
226 -2768 270 -232 12 -307 11 -215 -1z"/>
</g>
</svg>
